<?xml version="1.0" encoding="UTF-8" standalone="no"?>
<!-- Created with Inkscape (http://www.inkscape.org/) -->

<svg
   width="45mm"
   height="45mm"
   viewBox="0 0 45 45"
   version="1.1"
   id="svg5"
   inkscape:version="1.1 (c68e22c387, 2021-05-23)"
   sodipodi:docname="backend.svg"
   xmlns:inkscape="http://www.inkscape.org/namespaces/inkscape"
   xmlns:sodipodi="http://sodipodi.sourceforge.net/DTD/sodipodi-0.dtd"
   xmlns="http://www.w3.org/2000/svg"
   xmlns:svg="http://www.w3.org/2000/svg">
  <sodipodi:namedview
     id="namedview7"
     pagecolor="#505050"
     bordercolor="#eeeeee"
     borderopacity="1"
     inkscape:pageshadow="0"
     inkscape:pageopacity="0"
     inkscape:pagecheckerboard="0"
     inkscape:document-units="mm"
     showgrid="false"
     width="45mm"
     inkscape:zoom="0.44542649"
     inkscape:cx="396.24945"
     inkscape:cy="561.25984"
     inkscape:window-width="1366"
     inkscape:window-height="745"
     inkscape:window-x="-8"
     inkscape:window-y="-8"
     inkscape:window-maximized="1"
     inkscape:current-layer="layer1" />
  <defs
     id="defs2" />
  <g
     inkscape:label="Camada 1"
     inkscape:groupmode="layer"
     id="layer1">
    <path
       style="fill:#000000;stroke-width:0.264583"
       d="m 11.1125,44.33036 c 0,-0.61037 0.0971,-0.6535 1.63807,-0.7276 l 1.63807,-0.0788 0.86846,-3.43958 c 0.47765,-1.89177 0.87161,-3.58841 0.87547,-3.77031 0.005,-0.25684 -1.63957,-0.33073 -7.36268,-0.33073 H 1.40019 L 0.7001,35.33451 0,34.68569 V 18.04038 1.39508 L 0.69754,0.69754 1.39508,0 h 21.14261 21.14262 l 0.64943,0.64944 0.64943,0.64943 v 16.6928 16.6928 l -0.64943,0.64943 -0.64943,0.64944 h -7.42036 c -5.76364,0 -7.4188,0.0738 -7.41335,0.33073 0.004,0.1819 0.39783,1.87854 0.87548,3.77031 l 0.86845,3.43958 1.63807,0.0788 c 1.54097,0.0741 1.63807,0.11723 1.63807,0.7276 v 0.64883 H 22.48959 11.1125 Z M 29.00058,43.19325 C 28.92398,42.93859 28.4845,41.21219 28.02395,39.3568 l -0.83737,-3.37344 h -4.67352 -4.67352 l -0.85527,3.50573 c -0.4704,1.92815 -0.85289,3.65455 -0.84998,3.83646 0.004,0.25546 1.48453,0.33072 6.50542,0.33072 6.06725,0 6.49085,-0.0308 6.36087,-0.46302 z m 14.38178,-9.04458 c 0.15064,-0.28148 0.27389,-0.99656 0.27389,-1.58908 v -1.07732 l -21.10052,0.0677 -21.10052,0.0677 -0.0814,0.98099 c -0.0448,0.53954 0.0487,1.22415 0.20775,1.52135 0.2874,0.53701 0.41751,0.54037 20.90808,0.54037 20.11449,0 20.62558,-0.0125 20.89277,-0.51177 z M 43.59265,17.26409 43.66135,4.49794 H 24.87339 6.08543 V 3.70419 2.91044 h 18.78542 c 17.91327,0 18.78541,-0.0221 18.78541,-0.47625 0,-0.26194 -0.14287,-0.61912 -0.3175,-0.79375 -0.4597,-0.45971 -41.23862,-0.45971 -41.69833,0 -0.2389,0.2389 -0.3175,3.76492 -0.3175,14.2434 0,7.65925 0.0801,14.00599 0.17797,14.10388 0.0979,0.0979 9.59312,0.14749 21.10052,0.11024 l 20.92255,-0.0677 z M 9.78959,17.33019 V 6.0854 h 0.66146 0.66145 V 17.33019 28.57498 H 10.45105 9.78959 Z m 16.85474,9.71229 c -0.53886,-0.55184 -0.97974,-1.24143 -0.97974,-1.53242 0,-0.29098 0.51412,-1.03364 1.1425,-1.65035 1.14174,-1.12053 1.14283,-1.12092 1.63264,-0.57969 0.47975,0.53012 0.47517,0.55719 -0.21647,1.27911 -0.87488,0.91318 -0.87518,1.0328 -0.005,1.94129 0.58612,0.61177 0.64619,0.79951 0.36448,1.13896 -0.50842,0.61261 -0.86466,0.50292 -1.93862,-0.5969 z m 4.11349,0.73051 c -0.32742,-0.13161 -0.59532,-0.3014 -0.59532,-0.37732 0,-0.0759 0.31174,-0.91675 0.69276,-1.86851 0.60989,-1.52347 0.76022,-1.70977 1.25677,-1.55741 0.31021,0.0952 0.61288,0.21705 0.67261,0.27083 0.0951,0.0856 -1.27817,3.83183 -1.38875,3.78847 -0.0235,-0.009 -0.31065,-0.12445 -0.63807,-0.25606 z m 3.62502,-0.13971 c -0.28979,-0.34917 -0.21405,-0.54086 0.49307,-1.24799 l 0.83545,-0.83545 -0.83632,-0.86286 c -0.82116,-0.84723 -0.82741,-0.87272 -0.34461,-1.40621 0.49151,-0.54311 0.49225,-0.54281 1.76606,0.71185 0.70089,0.69035 1.27435,1.37421 1.27435,1.51969 0,0.3735 -2.16234,2.53351 -2.53623,2.53351 -0.17017,0 -0.46346,-0.18564 -0.65177,-0.41254 z M 14.2875,26.98748 v -0.79375 h 4.10105 4.10104 v 0.79375 0.79375 H 18.38855 14.2875 Z M 4.49792,26.19373 V 25.39998 H 6.35 8.20209 v 0.79375 0.79375 H 6.35 4.49792 Z M 15.875,24.08396 v -0.80064 h 4.11862 4.11862 l -0.0837,0.7276 -0.0837,0.72761 -4.0349,0.073 -4.0349,0.073 z M 4.49792,22.48961 V 21.69586 H 6.35 8.20209 v 0.79375 0.79375 H 6.35 4.49792 Z M 12.7,21.0344 v -0.66146 h 5.29167 5.29167 v 0.66146 0.66146 H 17.99167 12.7 Z M 4.49792,18.78544 V 17.99169 H 6.35 8.20209 v 0.79375 0.79375 H 6.35 4.49792 Z m 9.78958,-0.79375 v -0.79375 h 12.7 12.7 v 0.79375 0.79375 h -12.7 -12.7 z M 2.91042,14.94898 c 0,-0.64256 0.0529,-0.66146 1.85208,-0.66146 1.79917,0 1.85209,0.0189 1.85209,0.66146 0,0.64256 -0.0529,0.66146 -1.85209,0.66146 -1.79916,0 -1.85208,-0.0189 -1.85208,-0.66146 z m 9.78958,0 v -0.66146 h 9.39271 9.39271 v 0.66146 0.66146 H 22.09271 12.7 Z m 12.74858,-2.97656 0.0837,-0.7276 h 6.35 6.35 l 0.0837,0.7276 0.0837,0.7276 H 31.88224 25.3648 Z M 2.91042,11.24482 c 0,-0.64256 0.0529,-0.66146 1.85208,-0.66146 1.79917,0 1.85209,0.0189 1.85209,0.66146 0,0.64255 -0.0529,0.66145 -1.85209,0.66145 -1.79916,0 -1.85208,-0.0189 -1.85208,-0.66145 z M 13.9223,10.35093 C 12.48261,8.88926 12.49288,8.7364 14.137,7.15462 l 0.95126,-0.91519 0.53041,0.53042 0.53041,0.53041 -0.80053,0.76696 -0.80053,0.76695 0.85108,0.8781 c 0.8499,0.87687 0.85035,0.87882 0.3241,1.40506 -0.52624,0.52625 -0.52874,0.52518 -1.8009,-0.7664 z m 7.90882,0.7649 C 21.35097,10.58527 21.35638,10.55817 22.09708,9.78505 L 22.85317,8.99586 22.14221,8.25378 C 21.32584,7.40167 21.26708,7.08023 21.84066,6.60421 c 0.34716,-0.28812 0.5885,-0.164 1.5875,0.81644 0.64795,0.63592 1.17809,1.34476 1.17809,1.57521 0,0.23044 -0.51412,0.92356 -1.1425,1.54027 -1.14174,1.12053 -1.14283,1.12092 -1.63263,0.5797 z m -4.08749,0.0125 c -0.32091,-0.20306 -0.26575,-0.53268 0.35308,-2.10997 0.68914,-1.7565 0.76797,-1.85134 1.30637,-1.57154 0.31513,0.16378 0.60805,0.32665 0.65092,0.36194 0.0429,0.0353 -0.23767,0.8526 -0.62345,1.81625 -0.69563,1.73767 -0.95345,1.96742 -1.68692,1.50332 z M 26.19375,8.99584 V 8.20209 h 7.9375 7.9375 v 0.79375 0.79375 h -7.9375 -7.9375 z M 2.91042,7.40834 V 6.61461 H 4.7625 6.61459 V 7.40836 8.20211 H 4.7625 2.91042 Z m 0,-3.70417 c 0,-0.70556 0.0882,-0.79375 0.79375,-0.79375 0.70556,0 0.79375,0.0882 0.79375,0.79375 0,0.70556 -0.0882,0.79375 -0.79375,0.79375 -0.70556,0 -0.79375,-0.0882 -0.79375,-0.79375 z"
       id="path21" />
  </g>
</svg>
