<?xml version="1.0" encoding="UTF-8" standalone="no"?>
<!-- Created with Inkscape (http://www.inkscape.org/) -->

<svg
   width="42.32mm"
   height="41.599998mm"
   viewBox="0 0 42.319999 41.599997"
   version="1.1"
   id="svg228"
   inkscape:version="1.1 (c68e22c387, 2021-05-23)"
   sodipodi:docname="frontend.svg"
   xmlns:inkscape="http://www.inkscape.org/namespaces/inkscape"
   xmlns:sodipodi="http://sodipodi.sourceforge.net/DTD/sodipodi-0.dtd"
   xmlns="http://www.w3.org/2000/svg"
   xmlns:svg="http://www.w3.org/2000/svg">
  <sodipodi:namedview
     id="namedview230"
     pagecolor="#505050"
     bordercolor="#eeeeee"
     borderopacity="1"
     inkscape:pageshadow="0"
     inkscape:pageopacity="0"
     inkscape:pagecheckerboard="0"
     inkscape:document-units="mm"
     showgrid="false"
     scale-x="1"
     width="42.32mm"
     inkscape:zoom="0.44542649"
     inkscape:cx="418.69984"
     inkscape:cy="583.71024"
     inkscape:window-width="1366"
     inkscape:window-height="745"
     inkscape:window-x="-8"
     inkscape:window-y="-8"
     inkscape:window-maximized="1"
     inkscape:current-layer="layer1" />
  <defs
     id="defs225" />
  <g
     inkscape:label="Camada 1"
     inkscape:groupmode="layer"
     id="layer1">
    <path
       style="fill:#000000;stroke-width:0.264583"
       d="m 0.66337104,41.164338 c -0.4335,-0.316749 -0.52788,-0.77039 -0.60523,-2.908941 -0.078,-2.158066 -0.0273,-2.558346 0.34214,-2.700123 C 1.067861,35.299099 1.162111,35.555502 1.288991,37.972926 l 0.11795,2.247116 19.74433,-0.06782 19.74434,-0.06782 0.0686,-13.00337 c 0.0586,-11.106509 0.12492,-13.024976 0.45455,-13.151466 0.21226,-0.08145 0.45464,-0.03691 0.53863,0.09898 0.27058,0.437813 0.47584,17.171323 0.27023,22.030914 -0.15111,3.571631 -0.2924,4.799594 -0.58604,5.093229 -0.57224,0.572241 -40.1956,0.583507 -40.97822996,0.01164 z M 6.830511,36.218431 c -2.65707,-1.8079 -3.90261,-2.811153 -3.90261,-3.143459 0,-0.268443 0.419,-1.360985 0.9311,-2.427866 0.76438,-1.592448 0.90269,-2.130746 0.77242,-3.006215 -0.14176,-0.95268 0.0551,-1.493561 1.8455,-5.071118 2.24323,-4.482345 2.95232,-5.470683 4.22674,-5.891278 1.08021,-0.356501 1.78096,-0.122696 4.05217,1.352006 0.9028,0.586194 1.77815,0.981328 1.94522,0.878074 0.67016,-0.414181 1.04352,-2.007036 1.04352,-4.451954 0,-2.029881 0.0778,-2.523604 0.41851,-2.654331 0.23019,-0.08833 4.40032,-0.160599 9.26697,-0.160599 h 8.84845 l 0.25803,0.678683 c 0.28565,0.751316 0.3633,18.323268 0.0898,20.318763 l -0.16825,1.227553 h -8.95882 c -8.30908,0 -9.07108,0.03885 -10.50672,0.535686 -0.85135,0.294627 -1.93809,0.502986 -2.41497,0.463021 -0.8265,-0.06927 -0.91848,0.02006 -1.96625,1.909509 -0.60456,1.090194 -1.27447,2.008436 -1.48869,2.040538 -0.21423,0.0321 -2.14567,-1.136553 -4.2921,-2.597013 z m 4.96596,-0.509587 c 1.00451,-1.982288 1.27975,-1.569053 -3.01137,-4.521065 -2.16387,-1.488607 -2.79349,-1.809369 -2.98719,-1.521852 -0.13498,0.200369 -0.54821,0.945454 -0.91828,1.655747 -0.58242,1.117851 -0.62218,1.342128 -0.29576,1.668542 0.71555,0.715549 6.14975,4.250459 6.35271,4.132392 0.11191,-0.0651 0.49886,-0.701294 0.85989,-1.413764 z m 5.1187,-2.834341 c 0.30368,-0.254662 1.21645,-1.75551 2.02837,-3.335218 1.78494,-3.47286 1.86747,-4.456893 0.39153,-4.668428 -0.60352,-0.0865 -0.95385,-0.293432 -1.01207,-0.597798 -0.049,-0.256029 0.88485,-2.473063 2.07513,-4.926741 1.86027,-3.83479 2.12182,-4.540341 1.86266,-5.024597 -0.57719,-1.078475 -1.3433,-0.581714 -2.39553,1.553303 -0.32273,0.654844 -1.01619,1.934766 -1.54101,2.844271 -1.18811,2.05899 -1.59091,2.103118 -4.22637,0.463021 -2.27558,-1.416136 -3.18255,-1.514501 -4.06885,-0.441285 -0.923,1.117645 -4.29658,8.118136 -4.12618,8.562188 0.0812,0.211508 2.02731,1.655755 4.32477,3.209433 4.48213,3.031077 5.47244,3.380827 6.68755,2.361851 z m 18.55648,-7.209896 v -6.879166 h -6.68791 -6.68791 l -1.10374,2.225506 -1.10374,2.225506 0.79811,0.618765 c 1.37465,1.065742 1.31586,2.226945 -0.27663,5.46411 -0.73829,1.500775 -1.34235,2.840228 -1.34235,2.976563 0,0.148791 3.27884,0.247883 8.20209,0.247883 h 8.20208 z m -12.59946,3.319963 c -0.3279,-0.854501 0.18377,-0.938713 5.70351,-0.938713 4.49979,0 5.56678,0.07054 5.828,0.385286 0.68711,0.827913 0.0198,0.937631 -5.70284,0.937631 -4.72264,0 -5.70611,-0.06483 -5.82867,-0.384204 z m 0,-3.704168 c -0.32885,-0.856974 0.18212,-0.938711 5.8682,-0.938711 h 5.67293 v 0.661458 0.661458 h -5.69685 c -4.73629,0 -5.7217,-0.06478 -5.84428,-0.384205 z m 0,-3.704166 c -0.32876,-0.856745 0.18227,-0.938712 5.85259,-0.938712 5.69854,0 6.36567,0.110148 5.67892,0.937632 -0.47361,0.570666 -11.31255,0.571681 -11.53151,0.0011 z m 12.59946,-6.36267 v -2.248958 h -6.22702 -6.22701 l 0.29829,0.557363 c 0.3039,0.567841 0.23417,2.393832 -0.12181,3.189807 -0.28775,0.643422 0.0959,0.685777 6.52286,0.720054 l 5.75469,0.03069 z m -15.92031,-1.480973 c 0.39494,-0.632403 0.25742,-0.905992 -0.34015,-0.676684 -0.40739,0.156328 -0.58841,1.231615 -0.20735,1.231615 0.11052,0 0.35689,-0.249719 0.5475,-0.554931 z M 0.19387104,33.425717 c -0.33137,-0.331375 -0.20497,-32.015141 0.13067,-32.751784 L 0.63159104,2.5e-5 H 9.849541 c 7.91894,0 9.21794,0.05462 9.21794,0.387566 0,0.535097 -0.8417,0.935351 -1.96698,0.935351 h -0.94343 V 4.36565 7.408358 h 12.43541 12.43542 V 4.36565 1.322942 l -6.81302,-0.0011 C 30.467721,1.321254 25.883811,1.243352 24.028421,1.148721 20.987541,0.993632 20.654981,0.928531 20.654981,0.488336 20.654981,0.02186 21.122391,0 31.096721,0 h 10.44173 l 0.32498,0.595312 c 0.20082,0.36786 0.36326,2.111664 0.42517,4.564063 0.11455,4.538029 -0.13564,6.879166 -0.73518,6.879166 -0.29312,0 -0.41343,-0.387287 -0.47258,-1.521354 l -0.0794,-1.521354 H 21.170951 1.340401 v 9.48384 c 0,13.334498 -0.1965,15.896048 -1.14652996,14.946019 z M 15.098731,4.36565 V 1.322942 H 8.219571 1.340401 V 4.36565 7.408358 h 6.87917 6.87916 z m -3.68659,1.561686 c -1.45826,-1.227046 -0.88116,-3.546061 0.88247,-3.546061 2.09343,0 2.62482,2.834607 0.7164,3.821492 -0.75012,0.3879 -0.8261,0.374811 -1.59887,-0.275431 z m 1.43764,-1.561686 c 0,-0.287056 -0.20836,-0.562046 -0.46302,-0.611089 -0.34681,-0.06679 -0.46303,0.0866 -0.46303,0.611089 0,0.524494 0.11622,0.677877 0.46303,0.611089 0.25466,-0.04904 0.46302,-0.324033 0.46302,-0.611089 z M 2.709441,5.73766 c -1.17289,-1.248487 -0.47045,-3.356385 1.1185,-3.356385 1.11621,0 1.78909,0.737871 1.8249,2.001174 0.0495,1.747374 -1.78253,2.590898 -2.9434,1.355211 z m 1.75633,-1.309703 c 0.1088,-0.564954 -0.71413,-0.935815 -1.01093,-0.455584 -0.30521,0.493843 -0.007,1.095268 0.4955,0.99854 0.23468,-0.04519 0.46663,-0.289525 0.51543,-0.542956 z m 2.80122,1.719579 c -0.45744,-0.305438 -0.89951,-1.28824 -0.89951,-1.999764 0,-0.780989 0.70347,-1.655772 1.52327,-1.894235 0.76515,-0.222563 2.1809,1.112165 2.1809,2.056079 0,1.412374 -1.73713,2.55073 -2.80466,1.83792 z m 1.34945,-1.800311 c 0,-0.276922 -0.20836,-0.543621 -0.46302,-0.592664 -0.46564,-0.08968 -0.67033,0.712459 -0.28112,1.10167 0.31259,0.312586 0.74414,0.01739 0.74414,-0.509006 z"
       id="path244" />
  </g>
</svg>
