<?xml version="1.0" encoding="UTF-8" standalone="no"?>
<!-- Created with Inkscape (http://www.inkscape.org/) -->

<svg
   width="42.349998mm"
   height="42.799999mm"
   viewBox="0 0 42.349998 42.799999"
   version="1.1"
   id="svg451"
   inkscape:version="1.1 (c68e22c387, 2021-05-23)"
   sodipodi:docname="hardware.svg"
   xmlns:inkscape="http://www.inkscape.org/namespaces/inkscape"
   xmlns:sodipodi="http://sodipodi.sourceforge.net/DTD/sodipodi-0.dtd"
   xmlns="http://www.w3.org/2000/svg"
   xmlns:svg="http://www.w3.org/2000/svg">
  <sodipodi:namedview
     id="namedview453"
     pagecolor="#505050"
     bordercolor="#eeeeee"
     borderopacity="1"
     inkscape:pageshadow="0"
     inkscape:pageopacity="0"
     inkscape:pagecheckerboard="0"
     inkscape:document-units="mm"
     showgrid="false"
     inkscape:zoom="0.46324355"
     inkscape:cx="396.11993"
     inkscape:cy="561.25984"
     inkscape:window-width="1366"
     inkscape:window-height="745"
     inkscape:window-x="-8"
     inkscape:window-y="-8"
     inkscape:window-maximized="1"
     inkscape:current-layer="layer1" />
  <defs
     id="defs448" />
  <g
     inkscape:label="Camada 1"
     inkscape:groupmode="layer"
     id="layer1">
    <path
       style="fill:#000000;stroke-width:0.264583"
       d="m 9.92726,42.526146 c -0.07,-0.194 -0.15932,-1.30523 -0.19857,-2.4694 l -0.0714,-2.11666 -1.32292,-0.0691 c -0.7276,-0.038 -1.5945,-0.13052 -1.92643,-0.20554 -0.92694,-0.2095 -1.6433,-1.61702 -1.64445,-3.23105 L 4.7625,33.045326 H 2.79976 C 0.63538,33.045326 0,32.895216 0,32.383876 c 0,-0.51135 0.63538,-0.66146 2.79976,-0.66146 H 4.7625 V 30.145178 28.56798 L 2.4474,28.49153 C 0.59989,28.43052 0.13229,28.334923 0.13229,28.018209 c 0,-0.316715 0.4676,-0.412316 2.31511,-0.473321 l 2.3151,-0.07645 V 25.769249 24.07006 L 2.4474,23.99361 C 0.59989,23.9326 0.13229,23.837003 0.13229,23.520288 c 0,-0.316715 0.4676,-0.412315 2.31511,-0.473322 l 2.3151,-0.07645 V 21.393317 19.816119 H 2.50524 c -1.82563,0 -2.28835,-0.081 -2.41981,-0.423579 -0.25471,-0.663775 0.41165,-0.89091 2.62655,-0.895287 l 2.05052,-0.0041 v -1.577199 -1.577199 l -2.3151,-0.07645 c -1.84751,-0.06101 -2.31511,-0.156606 -2.31511,-0.473322 0,-0.305131 0.39756,-0.412519 1.71979,-0.46455 2.9282,-0.115227 2.91042,-0.103551 2.91042,-1.911439 v -1.572159 l -2.3151,-0.07645 c -1.84751,-0.06101 -2.31511,-0.156607 -2.31511,-0.473322 0,-0.3162735 0.46405,-0.4123125 2.28491,-0.4728825 l 2.28491,-0.07601 0.10932,-1.716901 C 4.9618,5.6638065 5.57401,5.0519455 8.01445,4.8240535 l 1.77513,-0.165765 v -2.36239 c 0,-2.10722997 0.05,-2.35282897 0.46302,-2.27386697 0.39164,0.07488 0.47481,0.444985 0.53947,2.40064997 l 0.0765,2.312127 h 1.5669 1.56689 l 0.0764,-2.312127 c 0.0647,-1.95566497 0.14783,-2.32577397 0.53947,-2.40064997 0.41345,-0.07905 0.46302,0.168459 0.46302,2.31212697 v 2.40065 h 1.5875 1.5875 v -1.933805 c 0,-1.20462 0.13452,-2.11776697 0.35674,-2.42167197 0.6549,-0.895636 0.96618,-0.211945 0.96618,2.12213397 v 2.233343 h 1.57719 1.5772 l 0.0764,-2.315104 c 0.061,-1.84750497 0.15661,-2.31510397 0.47332,-2.31510397 0.31672,0 0.41232,0.467599 0.47332,2.31510397 l 0.0764,2.315104 h 1.55734 1.55733 l 0.18727,-2.393888 c 0.15669,-2.00294297 0.25716,-2.38053497 0.61518,-2.31212597 0.34803,0.0665 0.44217,0.513345 0.50435,2.39388697 l 0.0764,2.312127 h 1.5669 1.56689 l 0.0764,-2.315104 c 0.061,-1.84750497 0.15661,-2.31510397 0.47332,-2.31510397 0.31617,0 0.41231,0.463207 0.47278,2.27775497 l 0.0759,2.277755 1.76538,0.164854 c 2.42969,0.226888 3.04307,0.841616 3.19326,3.200305 l 0.10932,1.716901 2.28491,0.07601 c 1.82086,0.06057 2.28491,0.156609 2.28491,0.4728825 0,0.316715 -0.4676,0.412315 -2.3151,0.473322 l -2.31511,0.07645 v 1.572159 c 0,1.807888 -0.0178,1.796212 2.91042,1.911439 1.32224,0.05203 1.71979,0.159419 1.71979,0.46455 0,0.316716 -0.4676,0.412316 -2.3151,0.473322 l -2.31511,0.07645 v 1.577199 1.577199 h 1.96274 c 2.16439,0 2.79976,0.150111 2.79976,0.661458 0,0.511348 -0.63537,0.661459 -2.79976,0.661459 h -1.96274 v 1.577198 1.577199 l 2.31511,0.07645 c 1.8475,0.06101 2.3151,0.156607 2.3151,0.473322 0,0.316715 -0.4676,0.412316 -2.3151,0.473322 l -2.31511,0.07645 v 1.699189 1.699189 l 2.31511,0.07645 c 1.8475,0.061 2.3151,0.156606 2.3151,0.473321 0,0.316714 -0.4676,0.412316 -2.3151,0.473321 l -2.31511,0.07645 v 1.577198 1.577197 h 1.96274 c 2.16439,0 2.79976,0.15011 2.79976,0.66146 0,0.51134 -0.63537,0.66145 -2.79976,0.66145 h -1.96274 v 1.19913 c 0,1.45743 -0.56131,2.89119 -1.28312,3.27749 -0.29379,0.15724 -1.25191,0.28588 -2.12914,0.28588 h -1.59496 l -0.0761,2.4474 c -0.0611,1.96526 -0.15426,2.4474 -0.47295,2.4474 -0.31869,0 -0.41186,-0.48214 -0.47295,-2.4474 l -0.0761,-2.4474 h -1.57757 -1.57757 v 2.35295 c 0,1.82461 -0.0872,2.38641 -0.3884,2.50198 -0.54482,0.20907 -0.59103,0.0629 -0.80697,-2.55206 l -0.19218,-2.32735 -1.48904,0.0784 -1.48904,0.0784 -0.13229,2.38125 c -0.10453,1.88148 -0.21559,2.38125 -0.52917,2.38125 -0.31869,0 -0.41186,-0.48214 -0.47295,-2.4474 l -0.0761,-2.4474 h -1.57757 -1.57757 v 2.35295 c 0,1.86928 -0.0833,2.38491 -0.40535,2.50848 -0.5894,0.22618 -0.91757,-0.861 -0.91757,-3.03977 v -1.84806 l -1.52135,0.0794 -1.52136,0.0793 -0.13229,2.38125 c -0.10453,1.88148 -0.21559,2.38125 -0.52917,2.38125 -0.31869,0 -0.41186,-0.48214 -0.47295,-2.4474 l -0.0761,-2.4474 h -1.56764 -1.56765 l -0.0761,2.426 c -0.0517,1.64833 -0.18205,2.46111 -0.40667,2.53554 -0.18182,0.0603 -0.38783,-0.0492 -0.4578,-0.24318 z m 25.88333,-6.27211 c 0.39711,-0.32971 0.43736,-1.7106 0.43736,-15.005788 0,-14.2059885 -0.0153,-14.6508375 -0.51178,-14.9165615 C 34.95753,5.9149665 6.82145,5.9567945 6.40295,6.3752965 6.16359,6.6146505 6.08644,10.277712 6.0895,21.258109 c 0.002,8.010921 0.0915,14.696287 0.19844,14.856367 0.10691,0.16008 0.37298,0.3606 0.59126,0.44561 0.21828,0.085 6.71873,0.13263 14.44545,0.10582 11.46446,-0.0398 14.12903,-0.11554 14.48594,-0.41187 z m -27.059,-2.52281 c -0.47847,-0.57653 -0.26727,-4.257807 0.24427,-4.257807 0.29851,0 0.42967,0.426273 0.52917,1.719787 l 0.13229,1.71979 3.24115,0.0743 3.24114,0.0743 v -1.54273 c 0,-0.84849 -0.13007,-1.672788 -0.28904,-1.83176 -0.16203,-0.162036 -0.7345,-0.229296 -1.3028,-0.15307 -2.68613,0.360286 -3.2963,-3.53952 -0.63414,-4.05299 1.15942,-0.223624 2.23168,0.732501 2.33905,2.08571 0.0452,0.56977 0.32338,1.261766 0.64469,1.603783 0.45141,0.480507 0.56516,0.930989 0.56516,2.238177 v 1.63659 h 1.85208 1.85209 v -1.27101 c 0,-1.10523 -0.12079,-1.388079 -0.92605,-2.168565 -0.80339,-0.778677 -0.92604,-1.064662 -0.92604,-2.15926 0,-1.007361 -0.11101,-1.321119 -0.5507,-1.55643 -0.30288,-0.162099 -0.70117,-0.652592 -0.88508,-1.089985 -0.68355,-1.625707 0.24418,-3.131825 1.92914,-3.131825 2.10591,0 2.97343,2.502368 1.35873,3.91925 -1.1701,1.026738 -1.0894,2.12183 0.26458,3.590728 0.94843,1.02893 1.05833,1.289325 1.05833,2.507627 v 1.35947 h 5.02709 5.02708 v -2.778117 -2.778125 h -2.14281 c -2.03973,0 -2.17847,0.03818 -2.88427,0.79375 -1.03777,1.110932 -2.33867,1.102889 -3.28378,-0.02029 -0.89763,-1.06677 -0.87075,-1.951289 0.0884,-2.910467 1.03729,-1.037285 2.10389,-1.030404 3.15465,0.02035 0.75855,0.758551 0.89438,0.79375 3.06306,0.79375 l 2.26931,-8e-6 v -3.439583 -3.439583 h -2.08427 c -2.4114,0 -2.8031,0.25594 -2.53979,1.659519 0.38156,2.033853 -2.13841,3.245649 -3.4876,1.677116 -0.34077,-0.396171 -0.61959,-1.016739 -0.61959,-1.379041 0,-0.947194 1.11164,-1.957594 2.15374,-1.957594 0.49333,0 1.09528,-0.225861 1.42335,-0.534065 0.43328,-0.407043 1.08235,-0.573691 2.72903,-0.700674 l 2.16055,-0.16661 V 15.67587 13.466128 h -2.06375 c -1.13948,0 -2.1932,0.12945 -2.35279,0.289042 -0.16464,0.164635 -0.22875,0.738559 -0.14897,1.333427 0.11343,0.845614 0.0237,1.168274 -0.47145,1.695332 -1.28569,1.368562 -3.42971,0.534997 -3.42971,-1.333426 0,-1.196096 0.76996,-1.984375 1.93826,-1.984375 0.59648,0 1.08008,-0.213066 1.50133,-0.661459 0.56633,-0.602832 0.81665,-0.661458 2.82424,-0.661458 h 2.20284 V 10.952586 9.7619605 H 21.0344 9.52503 v 1.8520835 1.852084 h 3.32437 3.32438 l 0.66789,-0.79375 c 0.49583,-0.589263 0.89483,-0.79375 1.54878,-0.79375 1.245,0 1.68212,0.221639 2.12457,1.077256 0.54421,1.052385 0.48364,1.691409 -0.24008,2.532781 -0.925,1.075382 -2.35295,1.022276 -3.37862,-0.125653 l -0.76375,-0.854782 -3.23762,0.07426 -3.23763,0.07426 v 2.116666 2.116667 l 1.77035,0.07788 c 1.55394,0.06836 1.80556,0.01209 2.05836,-0.460282 0.30688,-0.573404 1.57692,-1.337389 2.22327,-1.337389 0.21434,0 0.75604,0.30824 1.20376,0.684978 1.63722,1.377624 0.76712,3.812939 -1.36229,3.812939 -0.73575,0 -1.10546,-0.182831 -1.62982,-0.805993 -0.64885,-0.771118 -0.75577,-0.802602 -2.47091,-0.727605 l -1.79272,0.07839 -0.0799,1.538115 c -0.0665,1.280876 -0.15499,1.523663 -0.52916,1.4517 -0.40696,-0.07827 -0.45541,-0.734685 -0.51389,-6.962073 -0.038,-4.047772 0.0396,-7.0388895 0.18877,-7.2725345 0.21916,-0.343345 1.89325,-0.396875 12.41175,-0.396875 6.68713,0 12.25765,0.09913 12.37894,0.220284 0.32791,0.327556 0.42555,23.7633185 0.10255,24.6128985 l -0.2658,0.69911 H 21.20559 c -10.11802,0 -12.19657,-0.0622 -12.45405,-0.3724 z m 6.01219,-5.501349 c 0.78376,-0.783762 -0.0344,-1.942883 -0.95949,-1.359349 -0.60153,0.379433 -0.65447,0.765923 -0.17113,1.249264 0.51098,0.510977 0.71032,0.530387 1.13062,0.110085 z m 11.80797,-0.62744 c 0.80187,-0.801865 0.21154,-1.820954 -0.95872,-1.655058 -0.70085,0.09935 -0.97103,1.07939 -0.4655,1.688519 0.41197,0.496388 0.90598,0.484783 1.42422,-0.03346 z m -5.94477,-3.143391 c 0.70285,-0.846887 -0.32947,-2.147827 -1.24622,-1.570498 -0.91608,0.576901 -0.58971,1.954663 0.46302,1.954663 0.2554,0 0.60785,-0.172874 0.7832,-0.384165 z m 6.27867,-2.694506 c 0.17678,-0.460685 -0.16765,-1.193743 -0.63392,-1.349164 -0.15461,-0.05154 -0.47329,0.09847 -0.70817,0.333356 -0.32389,0.323882 -0.36102,0.550469 -0.1537,0.937853 0.33349,0.623124 1.2679,0.671822 1.49579,0.07795 z m -10.512,-1.538827 c 0.70285,-0.846887 -0.32947,-2.147827 -1.24622,-1.570498 -0.91608,0.576901 -0.58972,1.954663 0.46302,1.954663 0.2554,0 0.60784,-0.172874 0.7832,-0.384165 z m 10.42874,-4.439517 c 0.22191,-0.352372 0.1874,-0.559117 -0.14956,-0.896076 -0.79261,-0.792614 -1.97515,0.243276 -1.26059,1.104266 0.4114,0.495705 1.02382,0.405289 1.41015,-0.20819 z M 19.53336,14.31146 c 0.17497,-1.234241 -1.24296,-1.897839 -1.80625,-0.845332 -0.43308,0.809224 0.11329,1.640805 1.00999,1.537211 0.50884,-0.05879 0.73428,-0.254675 0.79626,-0.691879 z M 8.5794,27.136521 c -0.26791,-0.698159 -0.005,-1.896435 0.41646,-1.896435 0.28523,0 0.39688,0.291531 0.39688,1.036285 0,1.049412 -0.52689,1.606627 -0.81334,0.86015 z"
       id="path467" />
  </g>
</svg>
