<?xml version="1.0" encoding="UTF-8" standalone="no"?>
<!-- Created with Inkscape (http://www.inkscape.org/) -->

<svg
   width="52.049999mm"
   height="53.130001mm"
   viewBox="0 0 52.049999 53.130001"
   version="1.1"
   id="svg5"
   inkscape:version="1.1 (c68e22c387, 2021-05-23)"
   sodipodi:docname="lider.svg"
   xmlns:inkscape="http://www.inkscape.org/namespaces/inkscape"
   xmlns:sodipodi="http://sodipodi.sourceforge.net/DTD/sodipodi-0.dtd"
   xmlns="http://www.w3.org/2000/svg"
   xmlns:svg="http://www.w3.org/2000/svg">
  <sodipodi:namedview
     id="namedview7"
     pagecolor="#505050"
     bordercolor="#eeeeee"
     borderopacity="1"
     inkscape:pageshadow="0"
     inkscape:pageopacity="0"
     inkscape:pagecheckerboard="0"
     inkscape:document-units="mm"
     showgrid="false"
     width="52.05mm"
     inkscape:zoom="0.44542649"
     inkscape:cx="396.24945"
     inkscape:cy="561.25984"
     inkscape:window-width="1366"
     inkscape:window-height="745"
     inkscape:window-x="-8"
     inkscape:window-y="-8"
     inkscape:window-maximized="1"
     inkscape:current-layer="layer1" />
  <defs
     id="defs2" />
  <g
     inkscape:label="Camada 1"
     inkscape:groupmode="layer"
     id="layer1">
    <path
       style="fill:#000000;stroke-width:0.264583"
       d="m 0.7753228,52.744134 c -0.17536,-0.211291 -0.27787,-0.598245 -0.22781,-0.859896 0.0785,-0.4102 0.42773,-0.486212 2.53539,-0.551807 l 2.44437,-0.07607 -0.0113,-6.406219 -0.0113,-6.406217 -0.73372,1.45496 c -0.86253,1.710381 -1.64209,2.128618 -2.95438,1.58505 -1.93246,-0.800452 -2.31712,-3.073366 -1.18265,-6.98818 0.962,-3.319669 2.03428,-5.503842 3.43958,-7.006215 l 1.23653,-1.321956 -0.67695,-0.88753 c -0.37232,-0.488141 -0.85923,-1.323781 -1.08201,-1.856977 -0.52154,-1.24822 -0.52823,-4.412829 -0.0119,-5.648486 1.62174,-3.881385 6.45555,-5.74842 10.1353102,-3.914718 4.19087,2.088397 5.57943,7.513086 2.84186,11.102231 l -0.69723,0.914113 h 1.65425 c 1.39648,0 1.8772,-0.133998 3.08495,-0.859896 1.17403,-0.705629 1.54484,-1.116443 2.06693,-2.289911 1.14623,-2.576278 3.36186,-6.217997 4.57393,-7.517925 0.99917,-1.071602 1.13881,-1.345984 0.87519,-1.719792 -1.81636,-2.575603 -2.32961,-4.8786884 -1.63785,-7.3494024 0.74252,-2.652039 3.44162,-4.895569 6.36883,-5.29386604 4.12435,-0.561188 8.17612,3.13947104 8.17612,7.46761504 0,1.8395724 -0.42463,3.1386654 -1.47686,4.5182054 l -0.66674,0.874138 h 1.35378 c 0.74457,0 1.56978,-0.115604 1.83379,-0.256898 0.26401,-0.141294 0.75479,-1.035217 1.09062,-1.986496 0.37017,-1.048542 0.8515,-1.8874404 1.22238,-2.1304524 0.59818,-0.391941 0.61178,-0.497386 0.61178,-4.742549 0,-5.02066604 0.0143,-5.04574204 2.35029,-4.12497304 1.81826,0.71668704 4.45428,2.05870704 4.64275,2.36365304 0.35192,0.569421 -0.28453,1.087936 -2.64372,2.15383 l -2.49724,1.128266 v 1.416559 c 0,0.779108 0.10283,1.41656 0.22851,1.41656 0.53694,0 1.62358,1.4347824 1.62358,2.1437534 0,0.798335 -1.79289,5.657062 -2.46727,6.686293 -0.75212,1.147882 -1.96819,1.488704 -5.31178,1.488704 h -3.06887 v 1.416834 1.416834 l 1.83224,0.153608 c 3.82407,0.320596 4.25473,0.988593 4.24912,6.590731 -0.002,2.226419 -0.11693,4.2266 -0.25489,4.444847 -0.38679,0.611875 0.30417,0.754512 3.75537,0.775216 2.6867,0.01611 3.13303,0.08118 3.351,0.48845 0.15952,0.298063 0.15811,0.636648 -0.004,0.926041 -0.23012,0.411197 -0.8542,0.45619 -6.32757,0.45619 h -6.07227 v 2.910416 2.910417 h -5.82087 -5.82083 v 2.640772 2.640772 l -5.88698,0.07121 -5.88698,0.07121 -0.0748,2.976562 -0.0748,2.976563 H 7.9320928 c -5.65498,0 -6.89326,-0.06647 -7.15693,-0.384164 z m 12.1028002,-4.579941 0.0748,-2.973395 h 1.32356 c 1.22658,0 1.3035,-0.0375 1.04967,-0.511773 -0.15064,-0.281475 -0.27389,-1.342462 -0.27389,-2.35775 v -1.845977 l -1.65365,-0.103195 c -0.9095,-0.05676 -1.74294,-0.06031 -1.85208,-0.0079 -0.10914,0.05242 -0.19844,2.459614 -0.19844,5.349314 0,5.400104 0.0401,5.607582 1.05834,5.475529 0.32106,-0.04164 0.41116,-0.619448 0.47168,-3.024865 z M 9.4960228,44.881505 c 0.0728,-3.298809 0.23233,-6.096778 0.3546,-6.217709 0.12227,-0.12093 1.5216902,-0.215188 3.1098202,-0.20946 3.66958,0.01323 3.74748,0.07667 3.93749,3.20633 0.10856,1.78793 0.23938,2.347833 0.60174,2.575303 0.33653,0.21126 0.58951,0.211024 0.92604,-7.93e-4 0.39207,-0.246854 0.47439,-0.78259 0.53724,-3.4963 0.0942,-4.069331 -0.0476,-4.277471 -2.91849,-4.282877 -3.29891,-0.0062 -3.13718,0.174183 -3.05082,-3.402806 l 0.0743,-3.075938 3.57187,-0.157215 c 3.59818,-0.158372 4.56197,-0.410787 6.16568,-1.614779 0.4519,-0.339269 0.44093,-0.392215 -0.20747,-1.001352 -0.63113,-0.592916 -0.75104,-0.616011 -1.53546,-0.29573 -2.33683,0.954135 -2.85726,1.062201 -5.16775,1.073089 -4.01881,0.01894 -4.47373,-0.723749 -1.92156,-3.137066 1.9227,-1.818095 2.37068,-3.062574 1.90995,-5.30571 -1.05579,-5.140195 -7.8437102,-6.167655 -10.3095202,-1.560509 -0.50994,0.952787 -0.59992,1.457401 -0.52173,2.92589 0.12261,2.302397 1.06151,3.744482 3.06511,4.707757 2.2699502,1.091333 2.2228302,2.288699 -0.0794,2.018115 -1.3833,-0.162581 -1.39059,-0.159528 -2.50538,1.049877 -1.32301,1.435291 -2.42539,3.749429 -3.18848,6.693305 -0.67513,2.604561 -0.62663,4.129329 0.13134,4.129329 0.42846,0 0.67193,-0.487667 1.38698,-2.778125 1.13201,-3.626073 1.63005,-4.71568 2.24459,-4.910728 1.23791,-0.392898 1.27271,-0.128746 1.27271,9.661528 0,5.051158 0.085,9.268939 0.18893,9.372852 0.10391,0.10391 0.55039,0.153519 0.99218,0.110241 l 0.80326,-0.07868 z m -0.51483,-9.641121 c -1.5109,-1.271344 -1.50825,-1.730949 0.0339,-5.858441 0.93842,-2.511684 1.9397002,-1.620457 3.0186802,2.686894 l 0.45766,1.827001 -1.09057,1.01727 c -0.59981,0.559501 -1.20511,1.017273 -1.3451,1.017273 -0.1399902,0 -0.6235302,-0.310499 -1.0745402,-0.689997 z m 1.3085802,-2.236036 c 0,-0.29963 -0.11906,-0.471196 -0.26458,-0.381259 -0.1455202,0.08994 -0.2645902,0.335089 -0.2645902,0.544782 0,0.209693 0.11907,0.38126 0.2645902,0.38126 0.14552,0 0.26458,-0.245153 0.26458,-0.544783 z m 0.60113,-10.344116 c -0.77452,-0.39321 -1.0284302,-1.232612 -0.52509,-1.735948 0.33755,-0.337554 0.53488,-0.344428 1.35668,-0.04726 0.74614,0.269808 1.14241,0.279521 1.76813,0.04334 1.4111,-0.532629 2.29828,0.368069 1.32309,1.343252 -0.61979,0.619794 -3.00765,0.861221 -3.92281,0.396619 z m -0.85516,-3.2536 c -0.7028602,-0.846887 0.32946,-2.147827 1.24622,-1.570498 0.91607,0.576901 0.58971,1.954663 -0.46302,1.954663 -0.25541,0 -0.60785,-0.172874 -0.7832,-0.384165 z m 3.70416,0 c -0.70053,-0.84409 0.33308,-2.170869 1.1579,-1.486325 0.54052,0.448594 0.54085,1.502552 5.3e-4,1.709891 -0.61854,0.237354 -0.80592,0.201191 -1.15844,-0.223566 z m 11.10195,23.138332 v -2.645833 h 2.14498 c 1.95282,0 2.12466,-0.04148 1.91823,-0.463021 -0.12471,-0.254661 -0.28628,-3.856302 -0.35904,-8.003646 l -0.13229,-7.540625 -0.99603,1.62844 c -1.30874,2.139679 -3.57652,4.417059 -5.23565,5.257807 -1.10827,0.561599 -1.84142,0.70232 -4.36323,0.837467 l -3.03113,0.162443 v 1.414733 1.414735 l 1.78593,0.0011 c 2.07,0.0011 3.23103,0.552411 3.9039,1.853594 0.34062,0.658681 0.40737,1.505337 0.33989,4.31118 -0.0462,1.92034 -0.18435,3.699888 -0.30703,3.95455 -0.20348,0.422386 -0.0232,0.46302 2.05421,0.46302 l 2.27726,-6.8e-5 z m 11.64167,-5.55625 v -2.910417 h 1.08919 c 1.01465,0 1.07499,-0.04075 0.88163,-0.595312 -0.11416,-0.327422 -0.2554,-1.701893 -0.31387,-3.054377 l -0.10631,-2.459064 -1.76751,0.07781 -1.7675,0.07781 -0.0718,5.416394 c -0.0408,3.07525 -0.18373,5.528308 -0.33073,5.675313 -0.50921,0.509209 -0.23935,0.682252 1.06399,0.682252 h 1.32292 z m -4.29726,1.632609 c 0.24187,-0.153551 0.38662,-1.871417 0.52916,-6.279804 l 0.19622,-6.06843 2.92813,-0.07436 c 3.81843,-0.09697 3.89737,-0.02522 4.08333,3.711226 0.10703,2.150372 0.22073,2.713596 0.59532,2.948826 0.33662,0.211389 0.58942,0.211175 0.92604,-7.93e-4 0.39487,-0.248643 0.47425,-0.793623 0.53935,-3.702813 0.042,-1.876192 0.0119,-3.671214 -0.0668,-3.988937 -0.18004,-0.726854 -0.67737,-0.881612 -3.53246,-1.099243 l -2.29795,-0.175157 -0.0752,-3.021479 c -0.0558,-2.239278 0.0127,-3.077297 0.26459,-3.237094 0.1869,-0.118589 1.85011,-0.217439 3.69602,-0.219668 1.84592,-0.0022 3.64967,-0.11562 4.00833,-0.251983 0.51539,-0.19595 0.88408,-0.841244 1.75856,-3.077863 1.00671,-2.574835 1.06889,-2.86748 0.68992,-3.246459 -0.56379,-0.563784 -0.90588,-0.196005 -1.74323,1.874121 -1.02271,2.528392 -1.66095,2.846049 -5.71836,2.846049 -2.8356,0 -3.29011,-0.06013 -3.4995,-0.463021 -0.35428,-0.68164 -0.0483,-1.221557 1.25706,-2.217872 1.62654,-1.241483 2.2727,-2.586878 2.27048,-4.7274404 -0.002,-2.118128 -0.70776,-3.410725 -2.47268,-4.530007 -1.01487,-0.643611 -1.4754,-0.76166 -2.9714,-0.76166 -1.56012,0 -1.9214,0.102124 -3.04197,0.859896 -2.15808,1.459373 -3.04472,4.091274 -2.19725,6.5223224 0.28218,0.809478 0.31702,0.826784 0.79447,0.394694 0.42506,-0.384666 0.64933,-0.40697 1.50733,-0.149907 0.75646,0.22664 1.20869,0.226237 1.81234,-0.0016 0.97707,-0.368805 1.67615,-0.145255 1.67615,0.535992 0,1.048515 -1.81346,1.75844 -3.51515,1.376096 -0.89916,-0.202027 -1.00173,-0.182958 -0.68889,0.128059 0.20217,0.200988 0.90336,0.647465 1.55821,0.99217 2.01943,1.063016 1.63779,2.483075 -0.48631,1.809563 -0.96527,-0.306067 -0.97386,-0.301903 -2.29182,1.111244 -1.416,1.518268 -4.27351,6.438434 -4.72783,8.140558 -0.295,1.105229 0.001,1.762273 0.67515,1.497726 0.19168,-0.07524 1.22111,-1.579331 2.28762,-3.342424 1.92583,-3.183665 2.42063,-3.634847 3.16735,-2.888125 0.23453,0.234531 0.3175,2.675232 0.3175,9.339792 0,6.664561 0.083,9.105263 0.3175,9.339792 0.36398,0.36398 0.98639,0.405466 1.47066,0.09803 z M 31.907013,22.49162 c -0.53886,-0.551838 -0.97974,-1.170772 -0.97974,-1.375409 0,-0.586963 1.3458,-4.861105 1.64615,-5.228019 0.33985,-0.415167 1.17181,-0.429804 1.42198,-0.02502 0.10392,0.168141 0.52331,1.447994 0.93198,2.844117 l 0.74304,2.538405 -1.10375,1.124633 c -0.60706,0.618548 -1.23338,1.124633 -1.39183,1.124633 -0.15845,0 -0.72898,-0.451505 -1.26783,-1.003344 z m 1.66609,-1.759167 c 0,-0.209693 -0.10658,-0.447134 -0.23686,-0.527647 -0.27236,-0.168331 -0.60077,0.512244 -0.36227,0.750749 0.28391,0.283904 0.59913,0.166521 0.59913,-0.223102 z M 28.919013,8.8437626 c -0.31708,-0.826317 0.004,-1.356092 0.82126,-1.356092 0.70153,0 0.79013,0.089 0.79013,0.79375 0,0.669628 -0.11402,0.806865 -0.72911,0.877616 -0.46529,0.05352 -0.78453,-0.06056 -0.88228,-0.315274 z m 3.57735,-0.05535 c -0.46796,-0.56386 -0.0144,-1.274477 0.88228,-1.382267 0.49851,-0.05993 0.72507,0.06612 0.85507,0.475718 0.34598,1.090076 -1.0015,1.79319 -1.73735,0.906549 z m 15.36732,-5.233199 c 0.88324,-0.371374 0.8372,-0.491966 -0.36183,-0.947838 -0.65922,-0.250637 -0.69958,-0.220572 -0.69958,0.521222 0,0.912748 -0.0485,0.893275 1.06141,0.426616 z"
       id="path21" />
  </g>
</svg>
