<?xml version="1.0" encoding="UTF-8" standalone="no"?>
<!-- Created with Inkscape (http://www.inkscape.org/) -->

<svg
   width="25.615mm"
   height="25.620001mm"
   viewBox="0 0 25.615 25.620001"
   version="1.1"
   id="svg5"
   inkscape:version="1.1 (c68e22c387, 2021-05-23)"
   sodipodi:docname="lupa.svg"
   xmlns:inkscape="http://www.inkscape.org/namespaces/inkscape"
   xmlns:sodipodi="http://sodipodi.sourceforge.net/DTD/sodipodi-0.dtd"
   xmlns="http://www.w3.org/2000/svg"
   xmlns:svg="http://www.w3.org/2000/svg">
  <sodipodi:namedview
     id="namedview7"
     pagecolor="#505050"
     bordercolor="#eeeeee"
     borderopacity="1"
     inkscape:pageshadow="0"
     inkscape:pageopacity="0"
     inkscape:pagecheckerboard="0"
     inkscape:document-units="mm"
     showgrid="false"
     inkscape:zoom="0.46324355"
     inkscape:cx="333.51787"
     inkscape:cy="200.75833"
     inkscape:window-width="1366"
     inkscape:window-height="745"
     inkscape:window-x="-8"
     inkscape:window-y="-8"
     inkscape:window-maximized="1"
     inkscape:current-layer="layer1" />
  <defs
     id="defs2" />
  <g
     inkscape:label="Camada 1"
     inkscape:groupmode="layer"
     id="layer1">
    <path
       style="fill:#000000;stroke-width:0.264583"
       id="path59"
       d="" />
    <path
       style="fill:#000000;stroke-width:0.264583"
       id="path21"
       d="" />
    <path
       style="fill:#ffffff;stroke-width:0.0668027"
       d="m 22.934515,25.548859 c -0.146963,-0.04869 -0.372424,-0.142127 -0.501019,-0.207606 -0.128591,-0.06548 -1.50422,-1.385227 -3.056942,-2.932766 -2.726229,-2.717127 -2.828268,-2.810443 -2.972721,-2.7186 -2.753294,1.750531 -6.247121,2.138367 -9.3349618,1.036238 C 4.232136,19.71362 1.8670816,17.427298 0.75686746,14.624242 -1.623015,8.6155451 1.8237433,1.8976506 8.0958882,0.32015065 13.259279,-0.97848835 18.635615,1.7762102 20.595567,6.7246711 c 1.127347,2.8463132 0.991485,6.0144509 -0.372784,8.6927799 -0.177789,0.349043 -0.390602,0.747863 -0.472908,0.886265 l -0.149653,0.251641 2.815773,2.821285 c 3.201396,3.207662 3.189748,3.192602 3.189748,4.123937 0,0.862162 -0.447899,1.567427 -1.2199,1.92086 -0.434823,0.19907 -1.067491,0.254614 -1.451333,0.127418 z M 11.846778,18.058063 c 4.085887,-0.662712 6.869078,-4.509049 6.20879,-8.5804764 C 17.447918,5.7307395 14.144983,3.0490913 10.342204,3.2151208 9.2228361,3.2639948 8.4092856,3.4758058 7.3694818,3.9890905 4.8787745,5.2185972 3.3443926,7.5662499 3.218359,10.340444 3.0038782,15.061505 7.1972132,18.8122 11.846778,18.058063 Z"
       id="path3053" />
  </g>
</svg>
